<?xml version="1.0" encoding="UTF-8"?>
<!DOCTYPE svg PUBLIC "-//W3C//DTD SVG 1.1//EN" "http://www.w3.org/Graphics/SVG/1.1/DTD/svg11.dtd">
<svg xmlns="http://www.w3.org/2000/svg" version="1.1" width="36px" height="36px" style="shape-rendering:geometricPrecision; text-rendering:geometricPrecision; image-rendering:optimizeQuality; fill-rule:evenodd; clip-rule:evenodd" xmlns:xlink="http://www.w3.org/1999/xlink">
<g><path style="opacity:0.921" fill="#0760bf" d="M 10.5,-0.5 C 15.1667,-0.5 19.8333,-0.5 24.5,-0.5C 29.1667,2.16667 32.8333,5.83333 35.5,10.5C 35.5,15.1667 35.5,19.8333 35.5,24.5C 32.8333,29.1667 29.1667,32.8333 24.5,35.5C 19.8333,35.5 15.1667,35.5 10.5,35.5C 5.83333,32.8333 2.16667,29.1667 -0.5,24.5C -0.5,19.8333 -0.5,15.1667 -0.5,10.5C 2.16667,5.83333 5.83333,2.16667 10.5,-0.5 Z"/></g>
<g><path style="opacity:1" fill="#eaf1f9" d="M 13.5,7.5 C 17.7535,10.4104 21.7535,13.7437 25.5,17.5C 22.4684,21.3659 18.9684,24.6992 15,27.5C 13.7202,27.3865 12.8869,26.7199 12.5,25.5C 14.8333,22.8333 17.1667,20.1667 19.5,17.5C 17.517,15.0163 15.3504,12.6829 13,10.5C 12.5304,9.42317 12.6971,8.42317 13.5,7.5 Z"/></g>
</svg>
