<?xml version="1.0" standalone="no"?>
<!DOCTYPE svg PUBLIC "-//W3C//DTD SVG 20010904//EN"
 "http://www.w3.org/TR/2001/REC-SVG-20010904/DTD/svg10.dtd">
<svg version="1.0" xmlns="http://www.w3.org/2000/svg"
 width="150.000000pt" height="150.000000pt" viewBox="0 0 150.000000 150.000000"
 preserveAspectRatio="xMidYMid meet">

<g transform="translate(0.000000,150.000000) scale(0.100000,-0.100000)"
fill="#000000" stroke="none">
<path d="M547 1484 c-252 -68 -466 -286 -532 -539 -20 -80 -20 -310 0 -390 67
-257 283 -473 539 -540 77 -20 315 -20 392 0 213 55 399 212 494 418 48 102
60 167 60 317 0 150 -12 215 -60 317 -95 206 -281 363 -494 418 -72 19 -329
18 -399 -1z m313 -519 l225 -225 -222 -222 -222 -222 -59 54 c-33 30 -60 59
-61 65 0 5 71 82 159 170 l160 160 -160 160 c-88 88 -160 164 -160 170 0 10
100 115 110 115 3 0 106 -101 230 -225z"/>
</g>
</svg>
